<svg width="1433" height="163" viewBox="0 0 1433 163" fill="none" xmlns="http://www.w3.org/2000/svg">
<g opacity="0.034241">
<path fill-rule="evenodd" clip-rule="evenodd" d="M218.16 31.4554C214.167 27.1268 208.114 24.9566 199.988 24.9566C194.673 24.9566 190.259 25.855 186.735 27.6285C183.222 29.4136 180.401 31.6187 178.293 34.2439C176.186 36.8691 174.699 39.6459 173.832 42.5861C172.977 45.5263 172.462 48.1515 172.31 50.4733H226.484C224.927 42.1311 222.141 35.784 218.16 31.4554ZM180.518 95.0546C185.517 99.8966 192.718 102.323 202.096 102.323C208.817 102.323 214.6 100.643 219.448 97.3064C224.295 93.9578 227.269 90.4226 228.358 86.6774H257.675C252.992 101.133 245.803 111.471 236.109 117.689C226.414 123.896 214.682 127 200.925 127C191.383 127 182.789 125.495 175.12 122.45C167.451 119.428 160.965 115.099 155.661 109.499C150.345 103.898 146.224 97.2014 143.332 89.4192C140.44 81.637 139 73.0731 139 63.7392C139 54.7086 140.487 46.308 143.461 38.5142C146.423 30.732 150.65 24.0116 156.129 18.3295C161.597 12.6475 168.13 8.1672 175.717 4.90032C183.292 1.63344 191.699 0 200.925 0C211.24 0 220.232 1.98346 227.901 5.95039C235.547 9.91732 241.846 15.2377 246.775 21.9231C251.704 28.6085 255.252 36.2274 257.441 44.7796C259.631 53.3318 260.415 62.2691 259.794 71.5914H172.31C172.778 82.3837 175.506 90.2126 180.518 95.0546Z" fill="#3C453B"/>
<path fill-rule="evenodd" clip-rule="evenodd" d="M310.616 3.16213V25.6005H311.096C312.651 21.8782 314.767 18.4244 317.421 15.2389C320.075 12.0651 323.115 9.34638 326.553 7.09438C329.991 4.85405 333.662 3.10379 337.567 1.86694C341.472 0.618425 345.53 0 349.751 0C351.925 0 354.346 0.385057 357 1.16684V31.8897C355.433 31.5863 353.574 31.3063 351.388 31.0729C349.201 30.8396 347.085 30.7229 345.062 30.7229C338.97 30.7229 333.814 31.738 329.605 33.7683C325.384 35.787 321.993 38.5524 319.409 42.0529C316.837 45.5651 315.001 49.6607 313.914 54.328C312.814 59.0071 312.265 64.0711 312.265 69.5203V124H279V3.16213H310.616Z" fill="#3C453B"/>
<path fill-rule="evenodd" clip-rule="evenodd" d="M402.794 3.18547V19.5446H403.269C407.705 13.3486 413.056 8.52959 419.32 5.12242C425.572 1.71525 432.749 0 440.84 0C448.599 0 455.693 1.48189 462.111 4.42232C468.541 7.37442 473.405 12.5669 476.739 20.0113C480.393 14.7488 485.364 10.0932 491.639 6.0559C497.915 2.01863 505.354 0 513.931 0C520.444 0 526.494 0.781782 532.058 2.33368C537.61 3.89724 542.379 6.38261 546.354 9.81312C550.328 13.232 553.424 17.7126 555.655 23.2434C557.873 28.7626 559 35.4252 559 43.2081V124H525.237V55.5182C525.237 51.4693 525.082 47.6537 524.762 44.0598C524.442 40.4777 523.564 37.3622 522.14 34.7135C520.693 32.0647 518.581 29.9644 515.793 28.4125C513.005 26.849 509.221 26.0672 504.44 26.0672C499.659 26.0672 495.792 26.9657 492.849 28.7509C489.895 30.5478 487.582 32.8815 485.909 35.7636C484.237 38.6574 483.121 41.9245 482.564 45.5884C482.006 49.2523 481.733 52.9512 481.733 56.685V124H447.982V56.2183C447.982 52.6361 447.899 49.0889 447.745 45.5767C447.579 42.0762 446.902 38.8441 445.728 35.8803C444.53 32.9165 442.56 30.5478 439.784 28.7509C437.008 26.9657 432.939 26.0672 427.553 26.0672C425.963 26.0672 423.864 26.4172 421.254 27.1173C418.632 27.8174 416.105 29.1476 413.661 31.0963C411.193 33.0449 409.105 35.8453 407.361 39.5092C405.618 43.173 404.751 47.9571 404.751 53.8846V124H371V3.18547H402.794Z" fill="#3C453B"/>
<path fill-rule="evenodd" clip-rule="evenodd" d="M652.261 67.7816C650.145 68.4815 647.889 69.0649 645.469 69.5315C643.049 70.0098 640.524 70.3948 637.87 70.6982C635.217 71.0131 632.563 71.4098 629.909 71.8764C627.419 72.3431 624.953 72.9614 622.545 73.7431C620.113 74.5247 618.009 75.5747 616.22 76.893C614.42 78.223 612.982 79.9029 611.883 81.9212C610.796 83.9511 610.247 86.5177 610.247 89.6327C610.247 92.5842 610.796 95.0808 611.883 97.1108C612.982 99.1407 614.467 100.739 616.337 101.906C618.208 103.072 620.394 103.889 622.884 104.356C625.385 104.822 627.957 105.056 630.611 105.056C637.157 105.056 642.231 103.971 645.82 101.789C649.409 99.6074 652.062 96.9941 653.781 93.9609C655.499 90.916 656.551 87.8477 656.937 84.7328C657.334 81.6179 657.521 79.1213 657.521 77.243V64.865C656.119 66.1016 654.365 67.0816 652.261 67.7816ZM586.691 20.9761C590.116 15.8546 594.488 11.7364 599.784 8.62144C605.091 5.51819 611.053 3.30158 617.682 1.98328C624.31 0.664983 630.973 0 637.683 0C643.762 0 649.923 0.431655 656.154 1.2833C662.396 2.14661 668.089 3.8149 673.233 6.29983C678.377 8.79644 682.597 12.2613 685.87 16.6946C689.143 21.1278 690.78 27.0076 690.78 34.3108V97.1225C690.78 102.559 691.096 107.774 691.715 112.755C692.346 117.737 693.434 121.47 695 123.967L661.251 123.978C660.619 122.112 660.105 120.21 659.719 118.262C659.322 116.314 659.053 114.319 658.901 112.289C653.594 117.737 647.351 121.552 640.173 123.733C633.007 125.903 625.666 127 618.173 127C612.409 127 607.02 126.3 602.029 124.9C597.037 123.5 592.676 121.318 588.936 118.367C585.183 115.415 582.261 111.682 580.156 107.167C578.04 102.652 577 97.2858 577 91.0676C577 84.2195 578.204 78.5729 580.624 74.1397C583.044 69.7182 586.165 66.1716 589.988 63.5233C593.81 60.8867 598.182 58.8918 603.092 57.5735C608.014 56.2552 612.97 55.2052 617.962 54.4236C622.954 53.6536 627.875 53.0236 632.715 52.557C637.543 52.0903 641.833 51.3903 645.586 50.457C649.338 49.5237 652.296 48.1587 654.482 46.3738C656.656 44.5772 657.673 41.9756 657.521 38.5573C657.521 34.9757 656.937 32.1408 655.768 30.0409C654.611 27.9293 653.044 26.3076 651.104 25.141C649.151 23.9744 646.907 23.1927 644.335 22.8077C641.763 22.4111 638.993 22.2244 636.047 22.2244C629.512 22.2244 624.368 23.6127 620.639 26.401C616.898 29.1776 614.724 33.8208 614.093 40.3189H580.846C581.302 32.5491 583.254 26.1093 586.691 20.9761Z" fill="#3C453B"/>
<path fill-rule="evenodd" clip-rule="evenodd" d="M750.025 3.18547V20.0113H750.735C754.999 13.0336 760.542 7.95784 767.328 4.77237C774.126 1.5869 781.078 0 788.196 0C797.197 0 804.588 1.21351 810.367 3.62887C816.135 6.04423 820.671 9.38139 823.999 13.6637C827.315 17.946 829.648 23.1618 830.987 29.311C832.325 35.4602 833 42.2746 833 49.7424V124H799.317V55.7516C799.317 45.7751 797.73 38.3423 794.568 33.4299C791.418 28.5175 785.804 26.0672 777.75 26.0672C768.583 26.0672 761.963 28.7509 757.853 34.13C753.744 39.5092 751.695 48.3538 751.695 60.6523V124H718V3.18547H750.025Z" fill="#3C453B"/>
<path fill-rule="evenodd" clip-rule="evenodd" d="M925.261 67.7816C923.157 68.4815 920.889 69.0649 918.469 69.5315C916.049 70.0098 913.524 70.3948 910.87 70.6982C908.217 71.0131 905.563 71.4098 902.909 71.8764C900.419 72.3431 897.965 72.9614 895.545 73.7431C893.113 74.5247 891.009 75.5747 889.22 76.893C887.42 78.223 885.982 79.9029 884.883 81.9212C883.796 83.9511 883.247 86.5177 883.247 89.6327C883.247 92.5842 883.796 95.0808 884.883 97.1108C885.982 99.1407 887.467 100.739 889.337 101.906C891.208 103.072 893.394 103.889 895.895 104.356C898.385 104.822 900.957 105.056 903.611 105.056C910.169 105.056 915.231 103.971 918.82 101.789C922.409 99.6074 925.062 96.9941 926.781 93.9609C928.499 90.916 929.551 87.8477 929.937 84.7328C930.334 81.6179 930.521 79.1213 930.521 77.243V64.865C929.119 66.1016 927.365 67.0816 925.261 67.7816ZM859.691 20.9761C863.128 15.8546 867.488 11.7364 872.796 8.62144C878.091 5.51819 884.053 3.30158 890.682 1.98328C897.31 0.664983 903.973 0 910.683 0C916.762 0 922.923 0.431655 929.154 1.2833C935.396 2.14661 941.089 3.8149 946.233 6.29983C951.377 8.79644 955.597 12.2613 958.87 16.6946C962.143 21.1278 963.78 27.0076 963.78 34.3108V97.1225C963.78 102.559 964.096 107.774 964.715 112.755C965.346 117.737 966.434 121.47 968 123.967L934.251 123.978C933.619 122.112 933.105 120.21 932.719 118.262C932.333 116.314 932.053 114.319 931.901 112.289C926.594 117.737 920.351 121.552 913.173 123.733C906.007 125.903 898.666 127 891.173 127C885.409 127 880.02 126.3 875.029 124.9C870.037 123.5 865.676 121.318 861.936 118.367C858.183 115.415 855.261 111.682 853.156 107.167C851.04 102.652 850 97.2858 850 91.0676C850 84.2195 851.204 78.5729 853.624 74.1397C856.044 69.7182 859.165 66.1716 862.988 63.5233C866.81 60.8867 871.182 58.8918 876.092 57.5735C881.014 56.2552 885.97 55.2052 890.962 54.4236C895.954 53.6536 900.875 53.0236 905.715 52.557C910.543 52.0903 914.845 51.3903 918.586 50.457C922.338 49.5237 925.296 48.1587 927.482 46.3738C929.656 44.5772 930.685 41.9756 930.521 38.5573C930.521 34.9757 929.937 32.1408 928.768 30.0409C927.611 27.9293 926.044 26.3076 924.104 25.141C922.151 23.9744 919.907 23.1927 917.335 22.8077C914.763 22.4111 912.004 22.2244 909.047 22.2244C902.512 22.2244 897.368 23.6127 893.639 26.401C889.898 29.1776 887.724 33.8208 887.093 40.3189H853.846C854.314 32.5491 856.254 26.1093 859.691 20.9761Z" fill="#3C453B"/>
<path fill-rule="evenodd" clip-rule="evenodd" d="M1162.62 3.16213V25.6005H1163.1C1164.65 21.8782 1166.76 18.4244 1169.42 15.2389C1172.08 12.0651 1175.12 9.34638 1178.55 7.09438C1181.99 4.85405 1185.65 3.10379 1189.56 1.86694C1193.46 0.618425 1197.52 0 1201.74 0C1203.93 0 1206.35 0.385057 1209 1.16684V31.8897C1207.43 31.5863 1205.56 31.3063 1203.38 31.0729C1201.19 30.8396 1199.08 30.7229 1197.05 30.7229C1190.96 30.7229 1185.81 31.738 1181.59 33.7683C1177.37 35.787 1173.98 38.5524 1171.41 42.0529C1168.84 45.5651 1167 49.6607 1165.9 54.328C1164.8 59.0071 1164.26 64.0711 1164.26 69.5203V124H1131V3.16213H1162.62Z" fill="#3C453B"/>
<path fill-rule="evenodd" clip-rule="evenodd" d="M1290.26 67.7816C1288.15 68.4815 1285.89 69.0649 1283.47 69.5315C1281.05 70.0098 1278.52 70.3948 1275.87 70.6982C1273.22 71.0131 1270.56 71.4098 1267.91 71.8764C1265.42 72.3431 1262.95 72.9614 1260.54 73.7431C1258.11 74.5247 1256.01 75.5747 1254.22 76.893C1252.42 78.223 1250.98 79.9029 1249.88 81.9212C1248.8 83.9511 1248.25 86.5177 1248.25 89.6327C1248.25 92.5842 1248.8 95.0808 1249.88 97.1108C1250.98 99.1407 1252.47 100.739 1254.34 101.906C1256.21 103.072 1258.38 103.889 1260.9 104.356C1263.39 104.822 1265.96 105.056 1268.61 105.056C1275.16 105.056 1280.23 103.971 1283.82 101.789C1287.41 99.6074 1290.06 96.9941 1291.78 93.9609C1293.5 90.916 1294.55 87.8477 1294.94 84.7328C1295.33 81.6179 1295.52 79.1213 1295.52 77.243V64.865C1294.12 66.1016 1292.37 67.0816 1290.26 67.7816ZM1224.69 20.9761C1228.12 15.8546 1232.49 11.7364 1237.78 8.62144C1243.09 5.51819 1249.05 3.30158 1255.68 1.98328C1262.31 0.664983 1268.97 0 1275.68 0C1281.76 0 1287.92 0.431655 1294.15 1.2833C1300.4 2.14661 1306.09 3.8149 1311.23 6.29983C1316.38 8.79644 1320.6 12.2613 1323.87 16.6946C1327.14 21.1278 1328.78 27.0076 1328.78 34.3108V97.1225C1328.78 102.559 1329.1 107.774 1329.72 112.755C1330.35 117.737 1331.43 121.47 1333 123.967L1299.25 123.978C1298.62 122.112 1298.11 120.21 1297.72 118.262C1297.32 116.314 1297.05 114.319 1296.9 112.289C1291.59 117.737 1285.35 121.552 1278.17 123.733C1271 125.903 1263.67 127 1256.17 127C1250.41 127 1245.02 126.3 1240.03 124.9C1235.04 123.5 1230.68 121.318 1226.94 118.367C1223.18 115.415 1220.26 111.682 1218.16 107.167C1216.04 102.652 1215 97.2858 1215 91.0676C1215 84.2195 1216.2 78.5729 1218.62 74.1397C1221.04 69.7182 1224.17 66.1716 1227.99 63.5233C1231.81 60.8867 1236.18 58.8918 1241.09 57.5735C1246 56.2552 1250.97 55.2052 1255.96 54.4236C1260.95 53.6536 1265.88 53.0236 1270.72 52.557C1275.54 52.0903 1279.85 51.3903 1283.59 50.457C1287.34 49.5237 1290.3 48.1587 1292.48 46.3738C1294.66 44.5772 1295.69 41.9756 1295.52 38.5573C1295.52 34.9757 1294.94 32.1408 1293.77 30.0409C1292.61 27.9293 1291.04 26.3076 1289.1 25.141C1287.15 23.9744 1284.91 23.1927 1282.34 22.8077C1279.76 22.4111 1277 22.2244 1274.05 22.2244C1267.51 22.2244 1262.37 23.6127 1258.63 26.401C1254.9 29.1776 1252.72 33.8208 1252.09 40.3189H1218.85C1219.3 32.5491 1221.25 26.1093 1224.69 20.9761Z" fill="#3C453B"/>
<path fill-rule="evenodd" clip-rule="evenodd" d="M1386.62 3.16213V25.6005H1387.1C1388.65 21.8782 1390.77 18.4244 1393.42 15.2389C1396.08 12.0651 1399.12 9.34638 1402.55 7.09438C1405.99 4.85405 1409.66 3.10379 1413.57 1.86694C1417.47 0.618425 1421.53 0 1425.75 0C1427.93 0 1430.35 0.385057 1433 1.16684V31.8897C1431.43 31.5863 1429.56 31.3063 1427.38 31.0729C1425.2 30.8396 1423.08 30.7229 1421.06 30.7229C1414.97 30.7229 1409.81 31.738 1405.6 33.7683C1401.38 35.787 1397.99 38.5524 1395.41 42.0529C1392.84 45.5651 1391 49.6607 1389.91 54.328C1388.81 59.0071 1388.26 64.0711 1388.26 69.5203V124H1355V3.16213H1386.62Z" fill="#3C453B"/>
<path fill-rule="evenodd" clip-rule="evenodd" d="M1045.47 24.7375C1029.31 24.7375 1016.23 38.8394 1016.23 56.2301C1016.23 73.6209 1029.31 87.7228 1045.47 87.7228C1061.63 87.7228 1074.72 73.6209 1074.72 56.2301C1074.72 38.8394 1061.63 24.7375 1045.47 24.7375ZM1104 125.817C1102.66 132.134 1099.8 138.014 1095.39 143.456C1090.99 148.91 1084.62 153.524 1076.28 157.321C1067.96 161.095 1056.79 163 1042.8 163C1036.82 163 1030.73 162.243 1024.52 160.752C1018.31 159.25 1012.65 156.931 1007.54 153.784C1002.43 150.637 998.182 146.579 994.815 141.611C991.425 136.642 989.506 130.703 989.035 123.782H1022.28C1023.86 130.04 1026.92 134.394 1031.49 136.819C1036.04 139.244 1041.31 140.463 1047.28 140.463C1056.72 140.463 1063.59 137.624 1067.93 131.945C1072.25 126.255 1074.33 119.074 1074.18 110.39V94.2769H1073.61C1070 100.748 1064.85 105.516 1058.19 108.592C1051.5 111.668 1044.49 113.206 1037.1 113.206C1027.99 113.206 1020.14 111.585 1013.55 108.355C1006.95 105.114 1001.53 100.701 997.288 95.105C993.049 89.5092 989.953 82.9551 987.987 75.4665C986.021 67.966 985.409 67.6229 985.044 58.3478C984.726 50.4805 986.174 45.0859 988.458 37.751C990.73 30.4043 994.074 23.9448 998.465 18.3372C1002.86 12.7414 1008.32 8.28132 1014.84 4.96879C1021.36 1.65626 1028.85 0 1037.34 0C1045.35 0 1052.37 1.50247 1058.43 4.49557C1064.46 7.48868 1069.53 12.5403 1073.61 19.6267H1074.18V3.28887H1106V109.006C1106 113.904 1105.33 119.499 1104 125.817Z" fill="#3C453B"/>
<path fill-rule="evenodd" clip-rule="evenodd" d="M60.4747 24.7375C44.3103 24.7375 31.2187 38.8394 31.2187 56.2301C31.2187 73.6209 44.3103 87.7228 60.4747 87.7228C76.6273 87.7228 89.719 73.6209 89.719 56.2301C89.719 38.8394 76.6273 24.7375 60.4747 24.7375ZM118.999 125.817C117.656 132.134 114.784 138.014 110.392 143.456C105.989 148.91 99.6201 153.524 91.2848 157.321C82.9495 161.095 71.7886 163 57.7905 163C51.8215 163 45.7349 162.243 39.5187 160.752C33.3143 159.25 27.6514 156.931 22.5419 153.784C17.4324 150.637 13.1823 146.579 9.80348 141.611C6.42461 136.642 4.5056 130.703 4.03468 123.782H37.2818C38.8594 130.04 41.9204 134.394 46.4883 136.819C51.0445 139.244 56.3071 140.463 62.276 140.463C71.718 140.463 78.5935 137.624 82.9142 131.945C87.2466 126.255 89.3187 119.074 89.1774 110.39V94.2769H88.6123C84.998 100.748 79.8532 105.516 73.1896 108.592C66.5025 111.668 59.474 113.206 52.1041 113.206C42.9917 113.206 35.1391 111.585 28.5462 108.355C21.9533 105.114 16.5259 100.701 12.2876 95.105C8.04929 89.5092 4.95298 82.9551 2.98688 75.4665C1.02078 67.966 0.408581 67.6229 0.0436161 58.3478C-0.274256 50.4805 1.17383 45.0859 3.4578 37.751C5.73 30.4043 9.07355 23.9448 13.4649 18.3372C17.8563 12.7414 23.3189 8.28132 29.8294 4.96879C36.3517 1.65626 43.8512 0 52.3395 0C60.3452 0 67.3737 1.50247 73.4251 4.49557C79.4647 7.48868 84.5271 12.5403 88.6123 19.6267H89.1774V3.28887H121V109.006C121 113.904 120.329 119.499 118.999 125.817Z" fill="#3C453B"/>
</g>
</svg>
